<?xml version="1.0" encoding="UTF-8"?>
<!DOCTYPE svg PUBLIC "-//W3C//DTD SVG 1.1//EN" "http://www.w3.org/Graphics/SVG/1.1/DTD/svg11.dtd">
<!-- Creator: CorelDRAW (Evaluation Version) -->
<svg xmlns="http://www.w3.org/2000/svg" xml:space="preserve" width="48px" height="37px" version="1.1" style="shape-rendering:geometricPrecision; text-rendering:geometricPrecision; image-rendering:optimizeQuality; fill-rule:evenodd; clip-rule:evenodd"
viewBox="0 0 48 37.09"
 xmlns:xlink="http://www.w3.org/1999/xlink"
 xmlns:xodm="http://www.corel.com/coreldraw/odm/2003">
 <defs>
  <style type="text/css">
   <![CDATA[
    .fil0 {fill:#5CC6D0;fill-rule:nonzero}
   ]]>
  </style>
 </defs>
 <g id="Layer_x0020_1">
  <metadata id="CorelCorpID_0Corel-Layer"/>
  <g id="_1945327656048">
   <g>
    <path class="fil0" d="M33 30.16c-2.03,-3.78 -4.23,-7.4 -6.29,-11.15 -2.19,-3.97 -4.23,-8.06 -6.35,-12.11l3.2 0c2.12,4.13 4.49,8.08 6.71,12.05 1.28,2.28 2.44,4.57 3.62,6.92 1.14,2.27 1.18,2.11 2.23,4.29l-3.12 0z"/>
    <path class="fil0" d="M14.94 30.19l-3.06 0c3.47,-10.51 3.71,-11.39 8.52,-23.29l3.18 0c-3.26,7.52 -5,12.96 -7.69,20.91 -0.01,0.02 2.68,-0.1 4.98,-0.08 0,0 -0.13,2.42 -0.13,2.42 -2.96,-0.01 -5.79,0.02 -5.8,0.04z"/>
   </g>
  </g>
 </g>
</svg>
