<?xml version="1.0" encoding="UTF-8"?>
<!DOCTYPE svg PUBLIC "-//W3C//DTD SVG 1.1//EN" "http://www.w3.org/Graphics/SVG/1.1/DTD/svg11.dtd">
<!-- Creator: CorelDRAW (Evaluation Version) -->
<svg xmlns="http://www.w3.org/2000/svg" xml:space="preserve" width="25px" height="19px" version="1.1" style="shape-rendering:geometricPrecision; text-rendering:geometricPrecision; image-rendering:optimizeQuality; fill-rule:evenodd; clip-rule:evenodd"
viewBox="0 0 25 19.32"
 xmlns:xlink="http://www.w3.org/1999/xlink"
 xmlns:xodm="http://www.corel.com/coreldraw/odm/2003">
 <defs>
  <style type="text/css">
   <![CDATA[
    .fil0 {fill:#5CC6D0;fill-rule:nonzero}
   ]]>
  </style>
 </defs>
 <g id="Layer_x0020_1">
  <metadata id="CorelCorpID_0Corel-Layer"/>
  <g id="_1944646266032">
   <g>
    <path class="fil0" d="M17.19 15.71c-1.06,-1.97 -2.21,-3.86 -3.28,-5.81 -1.14,-2.06 -2.2,-4.2 -3.31,-6.31l1.67 0c1.1,2.16 2.34,4.21 3.5,6.28 0.66,1.19 1.26,2.38 1.88,3.6 0.6,1.18 0.61,1.1 1.16,2.24l-1.62 0z"/>
    <path class="fil0" d="M7.78 15.72l-1.59 0c1.81,-5.47 1.93,-5.93 4.44,-12.13l1.65 0c-1.7,3.92 -2.6,6.76 -4,10.89 -0.01,0.02 1.39,-0.05 2.59,-0.04 0,0 -0.07,1.26 -0.07,1.26 -1.54,0 -3.01,0.02 -3.02,0.02z"/>
   </g>
  </g>
 </g>
</svg>
